#N canvas 234 234 414 245 12;
#X obj 50 45 inlet;
#X obj 190 45 inlet;
#X obj 50 175 outlet;
#X text 96 44 x;
#X text 237 44 y;
#X obj 50 131 expr $f1 * $f2;
#X connect 0 0 5 0;
#X connect 1 0 5 1;
#X connect 5 0 2 0;
