#N canvas 1104 442 303 366 12;
#X obj 54 184 * 2;
#X obj 54 208 - 1;
#X obj 54 160 & 1;
#X obj 54 46 inlet;
#X obj 54 268 outlet;
#X obj 54 102 array get \$1 0 1;
#X connect 0 0 1 0;
#X connect 1 0 4 0;
#X connect 2 0 0 0;
#X connect 3 0 5 0;
#X connect 5 0 2 0;
