#N canvas 401 70 1077 789 12;
#X obj 50 353 t b b;
#X obj 50 464 t b b;
#X obj 859 372 expr _\$0_X + 1;
#X obj 246 372 expr _\$0_X;
#X obj 50 581 t b;
#X obj 109 600 expr _\$0_xf;
#X obj 105 220 i;
#X obj 73 253 -;
#X obj 105 253 % 255;
#X obj 50 192 t b f f;
#X obj 73 317 v _\$0_xf;
#X obj 150 317 v _\$0_X;
#X obj 50 39 inlet;
#X obj 246 396 array get \$2 0 1;
#X obj 859 396 array get \$2 0 1;
#X obj 50 87 expr $f1 * pow(2 \, \$1);
#X obj 270 721 outlet;
#X text 97 38 x;
#X obj 128 116 expr pow($f1 \, \$1);
#X obj 128 171 s \$0-amplitude;
#X obj 477 658 r \$0-amplitude;
#X obj 355 260 v \$3;
#X obj 323 293 +;
#X obj 323 317 v \$3;
#X obj 323 232 t f b;
#X text 392 259 update amplitude sum for all clones;
#X obj 128 140 t f f;
#X obj 50 63 route float persistance;
#X obj 270 683 expr $f1 * $f2 / if(\$4 \, \$3 \, 1);
#X text 393 38 args: count \, permutation table name \, amplitude sum
name \, normalize bool value, f 78;
#X text 393 78 based on Raouf Touti's explanations and code on https://rtouti.github.io/graphics/perlin-noise-algorithm
;
#X obj 246 442 perlin.1d-getvector \$2;
#X obj 109 529 perlin.1d-dotproduct;
#X text 115 553 left;
#X text 731 553 right;
#X obj 859 442 perlin.1d-getvector \$2;
#X obj 722 529 perlin.1d-dotproduct;
#X obj 109 483 expr _\$0_xf;
#X obj 722 483 expr _\$0_xf-1;
#X obj 270 643 perlin.1d-lerp;
#X obj 109 624 perlin.1d-ease;
#X connect 0 0 1 0;
#X connect 0 1 3 0;
#X connect 0 1 2 0;
#X connect 1 0 4 0;
#X connect 1 1 37 0;
#X connect 1 1 38 0;
#X connect 2 0 14 0;
#X connect 3 0 13 0;
#X connect 4 0 5 0;
#X connect 5 0 40 0;
#X connect 6 0 7 1;
#X connect 6 0 8 0;
#X connect 7 0 10 0;
#X connect 8 0 11 0;
#X connect 9 0 0 0;
#X connect 9 1 7 0;
#X connect 9 2 6 0;
#X connect 12 0 27 0;
#X connect 13 0 31 0;
#X connect 14 0 35 0;
#X connect 15 0 9 0;
#X connect 18 0 26 0;
#X connect 20 0 28 1;
#X connect 21 0 22 1;
#X connect 22 0 23 0;
#X connect 24 0 22 0;
#X connect 24 1 21 0;
#X connect 26 0 19 0;
#X connect 26 1 24 0;
#X connect 27 0 15 0;
#X connect 27 1 18 0;
#X connect 28 0 16 0;
#X connect 31 0 32 1;
#X connect 32 0 39 1;
#X connect 35 0 36 1;
#X connect 36 0 39 2;
#X connect 37 0 32 0;
#X connect 38 0 36 0;
#X connect 39 0 28 0;
#X connect 40 0 39 0;
